<svg xmlns="http://www.w3.org/2000/svg" width="26" height="26" viewBox="0 0 26 26"><g fill="#fff" transform="translate(5 -1031.362)"><circle cx="8" cy="1044.362" r="13" fill="#239fdb" fill-rule="evenodd"/><path style="line-height:normal;text-indent:0;text-align:start;text-decoration-line:none;text-decoration-style:solid;text-decoration-color:#000;text-transform:none;block-progression:tb;isolation:auto;mix-blend-mode:normal" d="m 8.4671206,1037.3275 c -1.807073,0 -3.2820427,1.4769 -3.2820132,3.2864 -2.95e-5,1.8095 1.4749402,3.2846 3.2820132,3.2846 1.8070734,0 3.2820424,-1.4751 3.2820134,-3.2846 2.9e-5,-1.8095 -1.47494,-3.2864 -3.2820134,-3.2864 z m 0,0.939 c 1.300287,0 2.3443154,1.0454 2.3442954,2.3474 2e-5,1.3021 -1.0440084,2.3475 -2.3442954,2.3475 -1.3002872,0 -2.3443163,-1.0454 -2.3442952,-2.3475 -2.11e-5,-1.302 1.044008,-2.3474 2.3442952,-2.3474 z m -3.0127856,6.571 c -1.4415375,0 -2.6208488,1.1676 -2.6208488,2.6042 l 0,1.6029 0,0.4438 c -6e-6,0.7909 5e-7,1.5821 0,2.3731 a 0.46890596,0.46953759 0 0 0 0.4688591,0.4695 l 10.3313827,0 a 0.46890596,0.46953759 0 0 0 0.467027,-0.4695 c 0,-0.791 9e-6,-1.5822 0,-2.3731 -10e-7,-0.1479 4e-6,-0.2959 0,-0.4438 l 0,-1.6029 c 0,-1.4366 -1.179312,-2.6042 -2.620848,-2.6042 l -6.025572,0 z m 0,0.939 6.025572,0 c 0.94287,0 1.684963,0.738 1.684962,1.6652 l 0,1.6029 c 4e-6,0.1479 -2e-6,0.2959 0,0.4438 5e-6,0.6344 2e-6,1.2691 0,1.9036 l -9.3936647,0 c -6e-7,-0.6345 -4.1e-6,-1.2692 0,-1.9036 1e-6,-0.1479 -2.6e-6,-0.2959 0,-0.4438 l 0,-1.6029 c 0,-0.9272 0.7402607,-1.6652 1.6831307,-1.6652 z" color="#000" font-family="sans-serif" font-weight="400" overflow="visible" transform="translate(-1.03 -69.863) scale(1.06642)"/></g></svg>